<svg width="18" height="20" viewBox="0 0 18 20" fill="none" xmlns="http://www.w3.org/2000/svg">
<path d="M15.8242 15.5957L17.2897 16.5377C16.5851 17.5899 15.6272 18.447 14.5045 19.0295C13.2257 19.6948 11.8009 20.0277 10.3605 19.9976C7.57008 19.9976 5.26469 19.0756 3.44433 17.2317C1.62397 15.3879 0.712917 13.0639 0.711182 10.2598C0.711182 7.44701 1.62657 5.11868 3.45734 3.2748C5.28811 1.43092 7.58917 0.508978 10.3605 0.508978C11.6796 0.500574 12.9856 0.772707 14.1921 1.30741C15.2841 1.76148 16.2356 2.49913 16.9487 3.4444L15.3869 4.59769C14.8731 3.86684 14.1849 3.27659 13.3852 2.8808C12.4629 2.39421 11.4338 2.14664 10.3917 2.16064C8.07159 2.16064 6.21044 2.94342 4.8083 4.50898C3.40368 6.08439 2.65067 8.13709 2.70247 10.2494C2.65158 12.3638 3.40968 14.4177 4.82131 15.9897C6.2356 17.5553 8.09241 18.3381 10.3917 18.3381C12.7934 18.345 14.6042 17.4309 15.8242 15.5957Z" fill="white"/>
</svg>
