<svg width="78" height="20" viewBox="0 0 78 20" fill="none" xmlns="http://www.w3.org/2000/svg">
<path d="M37.8033 9.51859C35.9942 8.29485 34.0264 8.83757 33.6385 9.49511C33.5088 11.9109 33.5236 14.3323 33.6828 16.7462C33.7739 17.8578 34.1149 18.3562 34.9504 18.4684L36.0359 18.5388V19.3216H27.7063V18.5388L28.2946 18.4684C29.1301 18.3562 29.4477 17.8578 29.5596 16.7462C29.7371 14.14 29.7371 11.5247 29.5596 8.91846C29.4685 7.80691 29.1301 7.30855 28.2946 7.19635L27.6959 7.12851V6.60665L33.6828 5.45075L33.6177 8.58187C35.0181 5.36464 37.7825 4.9289 39.2688 5.83953L37.8007 9.53425L37.8033 9.51859ZM77.322 9.63079L76.6426 9.81344C75.9216 7.43379 74.8205 6.4214 73.1858 6.4214C72.103 6.43444 71.3221 7.25114 71.3221 8.43314C71.3221 9.61513 72.2045 10.2231 74.7372 11.1963C77.2699 12.1696 77.9936 13.1481 77.9936 15.0502C77.9936 17.8839 75.8227 19.6269 72.2514 19.6269C70.6395 19.6211 69.0405 19.3378 67.5243 18.7893L67.4124 14.8754L68.0892 14.6928C69.0627 17.4351 70.3512 18.4318 72.0457 18.4318C73.7403 18.4318 74.2843 17.4142 74.2843 16.3262C74.2843 15.2381 73.6726 14.6249 71.3898 13.8082C69.1069 12.9915 67.7274 12.1096 67.7274 9.72994C67.7274 7.35029 69.7603 5.4377 73.1442 5.4377C74.706 5.4377 76.1975 5.69863 77.1918 6.16308L77.3272 9.63079H77.322ZM58.2186 10.9693L62.4225 10.878C62.4459 9.02022 62.1622 6.34312 60.6368 6.34312C59.1114 6.34312 58.2394 8.86106 58.1952 10.9459L58.2186 10.9693ZM54.033 12.668C54.033 8.95238 56.3627 5.46119 60.9986 5.46119C64.7495 5.46119 66.5378 8.24788 66.5612 11.8956H58.1718C58.0807 15.2068 59.7544 17.6543 62.9639 17.6543C64.3669 17.6543 65.1374 17.3125 65.9938 16.6575L66.379 17.1324C65.4523 18.424 63.5157 19.6477 60.9309 19.6477C56.8833 19.6243 54.033 16.7776 54.033 12.668ZM20.6626 6.30137C18.6739 6.30137 18.1325 8.97325 18.1325 12.5323C18.1325 16.0913 19.0149 18.7658 20.8448 18.7658C22.6747 18.7658 23.3775 16.0887 23.3775 12.5323C23.3775 8.97586 22.4717 6.32224 20.6418 6.32224L20.6626 6.30137ZM20.889 5.4377C25.3662 5.4377 27.5814 8.47489 27.5814 12.5088C27.5814 16.5427 25.0721 19.6243 20.5949 19.6243C16.1178 19.6243 13.8818 16.5871 13.8818 12.5793C13.8818 8.57143 16.3989 5.4377 20.889 5.4377ZM15.847 5.73255L14.9204 5.99348C14.0848 3.27202 12.7963 1.72994 10.3781 1.72994H7.25455C7.1192 3.47815 7.05152 6.37704 7.07234 9.39335L9.17556 9.3229C10.5786 9.27854 11.1434 8.23744 11.4818 6.71363H12.2627V13.1037H11.4818C11.1434 11.5643 10.5551 10.5205 9.15474 10.4736L7.07234 10.4057C7.09577 12.6967 7.16345 14.6458 7.25455 15.7991C7.38991 17.5003 7.86365 18.2492 9.06103 18.4292L10.1257 18.544V19.3268H0V18.544L0.835562 18.4292C2.03554 18.2492 2.50929 17.5003 2.65766 15.7991C2.90645 11.8378 2.90645 7.86475 2.65766 3.90346C2.5223 2.2257 2.04856 1.47684 0.835562 1.29419L0 1.17678V0.430529H15.7559L15.847 5.73255ZM45.4223 18.6745C45.0804 18.6688 44.7394 18.6383 44.4019 18.5832C44.3134 17.2785 44.2457 11.9661 44.2666 7.31898C44.7167 7.15905 45.1921 7.08214 45.6696 7.09198C47.6374 7.09198 48.7437 9.38291 48.7437 12.2374C48.7229 15.9087 47.3667 18.6745 45.4223 18.6745ZM47.5047 5.59687C46.3687 5.60964 45.2525 5.89696 44.2509 6.43444C44.2509 3.51207 44.2952 0.973255 44.3629 0L38.376 1.1559V1.69863L38.9643 1.76647C39.8024 1.88128 40.1174 2.37965 40.2293 3.48858C40.4141 5.64123 40.3907 17.1324 40.2293 18.9693C41.9053 19.3667 43.6195 19.5793 45.3416 19.6034C50.0895 19.6034 52.9606 16.6575 52.9606 11.987C52.9371 8.27136 50.6179 5.59687 47.5099 5.59687H47.5047Z" fill="white"/>
</svg>
