<svg width="15" height="20" viewBox="0 0 15 20" fill="none" xmlns="http://www.w3.org/2000/svg">
<path d="M10.2897 19.5118C8.45321 20.1589 6.45156 20.1589 4.61512 19.5118C3.87301 19.2445 3.19223 18.8301 2.61342 18.2933C2.09683 17.7882 1.67611 17.1932 1.37178 16.5372C1.0672 15.9088 0.843292 15.2443 0.705417 14.5594C0.582966 13.9152 0.52196 13.2608 0.523212 12.6051V0.967773H2.40517V12.3963C2.40517 14.075 2.81038 15.4814 3.62078 16.6155C4.43118 17.7497 5.70837 18.3176 7.45238 18.3194C9.18771 18.3194 10.4649 17.7514 11.284 16.6155C12.1031 15.4796 12.5083 14.0732 12.4996 12.3963V0.967773H14.3816V12.6077C14.3815 13.2634 14.3205 13.9177 14.1994 14.562C14.0603 15.2466 13.8364 15.911 13.533 16.5399C13.2268 17.1953 12.8053 17.7902 12.2888 18.2959C11.7103 18.8313 11.0305 19.2447 10.2897 19.5118Z" fill="white"/>
</svg>
