<svg width="14" height="20" viewBox="0 0 14 20" fill="none" xmlns="http://www.w3.org/2000/svg">
<path d="M0.604492 19.5277V0.968023H6.12285C6.84375 0.962879 7.56304 1.03725 8.26771 1.18981C8.92808 1.33851 9.56246 1.58566 10.1497 1.92301C10.7506 2.27296 11.2399 2.78696 11.5605 3.40508C11.9237 4.11821 12.1027 4.91126 12.0811 5.71166C12.0977 6.6449 11.7779 7.55283 11.1805 8.26874C10.5738 8.99707 9.74042 9.49976 8.81434 9.69601V9.74819C9.96219 9.84583 11.0354 10.3587 11.8338 11.1911C12.6112 12.0139 13 13.0794 13 14.3875C13.0202 15.1151 12.8615 15.8366 12.5378 16.4882C12.2142 17.1398 11.7355 17.7016 11.144 18.1239C9.90499 19.058 8.22259 19.526 6.09681 19.5277H0.604492ZM2.48645 2.59359V9.09327H6.27902C7.25673 9.11943 8.21919 8.84638 9.03821 8.31049C9.8139 7.78864 10.2017 6.96672 10.2017 5.84474C10.2017 4.72275 9.79221 3.9017 8.97313 3.38159C8.15405 2.85974 7.08161 2.59881 5.75582 2.59881L2.48645 2.59359ZM2.48645 10.6406V17.9021H5.9927C7.47293 17.9021 8.69287 17.6047 9.65251 17.0098C10.6121 16.4149 11.092 15.506 11.092 14.2831C11.092 13.0776 10.6816 12.1687 9.86075 11.5564C9.04341 10.9458 7.86425 10.6406 6.33108 10.6406H2.48645Z" fill="white"/>
</svg>
