<svg width="69" height="105" viewBox="0 0 69 105" fill="none" xmlns="http://www.w3.org/2000/svg">
<path d="M16.5 0C24.089 9.04977e-08 31.5878 1.64528 38.4796 4.82248C45.3715 7.99968 51.4927 12.6333 56.4213 18.404C61.35 24.1747 64.9689 30.9453 67.0289 38.2494C69.0889 45.5534 69.5408 53.2172 68.3536 60.7128C67.1665 68.2083 64.3684 75.3574 60.1522 81.6674C55.936 87.9774 50.4019 93.2984 43.9312 97.2636C37.4605 101.229 30.2071 103.744 22.6707 104.636C15.1344 105.528 7.49418 104.776 0.27663 102.43L16.5 52.5V0Z" fill="url(#paint0_linear_1_744)"/>
<defs>
<linearGradient id="paint0_linear_1_744" x1="48" y1="4.26173e-06" x2="7.00001" y2="105" gradientUnits="userSpaceOnUse">
<stop stop-color="#5A88FF"/>
<stop offset="1" stop-color="#00FFF0"/>
</linearGradient>
</defs>
</svg>
