<svg width="102" height="105" viewBox="0 0 102 105" fill="none" xmlns="http://www.w3.org/2000/svg">
<path d="M49.5 0C59.0223 1.13552e-07 68.3653 2.58983 76.5286 7.4922C84.692 12.3946 91.3684 19.4249 95.8428 27.8304C100.317 36.2359 102.422 45.7001 101.93 55.2097C101.439 64.7193 98.37 73.9162 93.0528 81.8156C87.7356 89.7151 80.3701 96.0197 71.7448 100.054C63.1196 104.089 53.5594 105.702 44.0878 104.72C34.6163 103.739 25.5901 100.199 17.9756 94.4817C10.3611 88.7639 4.44504 81.0828 0.860894 72.2608L49.5 52.5V0Z" fill="url(#paint0_linear_1_733)"/>
<defs>
<linearGradient id="paint0_linear_1_733" x1="81" y1="4.26173e-06" x2="40" y2="105" gradientUnits="userSpaceOnUse">
<stop stop-color="#5A88FF"/>
<stop offset="1" stop-color="#00FFF0"/>
</linearGradient>
</defs>
</svg>
